# xmcd
#
# Track frame offsets: 
#        150
#        9785
#        21120
#        35672
#        48772
#        60817
#        76600
#        89987
#        105072
#        118400
#        129547
#        143110
#        155590
#        171100
#        186445
#        198195
#        211750
#        224765
#        238845
#        252035
#
# Disc length: 3526 seconds
#
# Revision: 2
# Processed by: cddbd v1.5.2PL0 Copyright (c) Steve Scherf et al.
# Submitted via: ExactAudioCopy v0.99pb5
#
DISCID=0b0dc414
DTITLE=Золотое кольцо - Течет ручей
DYEAR=1994
DGENRE=Vocal
TTITLE0=Течет ручей
TTITLE1=Огней так много золотых
TTITLE2=Когда б имел златые горы
TTITLE3=Как хотела меня мать
TTITLE4=Околица
TTITLE5=Распрягайте, хлопцы, коней
TTITLE6=Зачем солнце рано пало
TTITLE7=Ой, то не вечер
TTITLE8=По муромской дорожке
TTITLE9=Волга-речка
TTITLE10=Будь счастлив
TTITLE11=Тонкая рябина
TTITLE12=По Дону гуляет
TTITLE13=На улице дождик
TTITLE14=Выйду на улицу
TTITLE15=Купавы
TTITLE16=Фонарики
TTITLE17=Белым снегом
TTITLE18=Бирюзовые колечки
TTITLE19=Оттепель
EXTD=* Студия Союз *
EXTT0=
EXTT1=
EXTT2=
EXTT3=
EXTT4=
EXTT5=
EXTT6=
EXTT7=
EXTT8=
EXTT9=
EXTT10=
EXTT11=
EXTT12=
EXTT13=
EXTT14=
EXTT15=
EXTT16=
EXTT17=
EXTT18=
EXTT19=
PLAYORDER=
